<svg width="1200" height="280" viewBox="0 0 1200 280" xmlns="http://www.w3.org/2000/svg">
  <defs>
    <linearGradient id="bgLight" x1="0" y1="0" x2="1" y2="1">
      <stop offset="0%" stop-color="#F7F9FC"/>
      <stop offset="100%" stop-color="#EAF1FB"/>
    </linearGradient>
    <radialGradient id="glowLight" cx="78%" cy="35%" r="55%">
      <stop offset="0%" stop-color="#0A66C2" stop-opacity="0.12"/>
      <stop offset="100%" stop-color="#0A66C2" stop-opacity="0"/>
    </radialGradient>
    <linearGradient id="cardStrokeL" x1="0" y1="0" x2="1" y2="1">
      <stop offset="0%" stop-color="#0A66C2" stop-opacity="0.35"/>
      <stop offset="100%" stop-color="#0A66C2" stop-opacity="0.05"/>
    </linearGradient>
  </defs>

  <rect width="1200" height="280" fill="url(#bgLight)"/>
  <rect width="1200" height="280" fill="url(#glowLight)"/>

  <g opacity="0.05" stroke="#0A66C2" stroke-width="1">
    <path d="M0 70 H1200 M0 140 H1200 M0 210 H1200"/>
    <path d="M300 0 V280 M600 0 V280 M900 0 V280"/>
  </g>

  <g transform="translate(860,40) rotate(-8)">
    <rect width="150" height="90" rx="14" fill="#0A66C2" fill-opacity="0.04" stroke="url(#cardStrokeL)" stroke-width="1.2"/>
    <rect x="16" y="18" width="70" height="8" rx="4" fill="#0A66C2" fill-opacity="0.5"/>
    <rect x="16" y="34" width="100" height="6" rx="3" fill="#0A66C2" fill-opacity="0.25"/>
    <rect x="16" y="48" width="60" height="6" rx="3" fill="#0A66C2" fill-opacity="0.18"/>
  </g>
  <g transform="translate(990,120) rotate(6)">
    <rect width="120" height="76" rx="12" fill="#0A66C2" fill-opacity="0.04" stroke="url(#cardStrokeL)" stroke-width="1.2"/>
    <circle cx="24" cy="24" r="9" fill="#0A66C2" fill-opacity="0.5"/>
    <rect x="42" y="18" width="60" height="6" rx="3" fill="#0A66C2" fill-opacity="0.3"/>
    <rect x="16" y="46" width="88" height="6" rx="3" fill="#0A66C2" fill-opacity="0.18"/>
  </g>
  <g transform="translate(870,150) rotate(-3)">
    <rect width="100" height="64" rx="10" fill="#0A66C2" fill-opacity="0.03" stroke="url(#cardStrokeL)" stroke-width="1"/>
    <rect x="14" y="14" width="40" height="40" rx="8" fill="#0A66C2" fill-opacity="0.35"/>
  </g>

  <text x="80" y="128" font-family="Helvetica, Arial, sans-serif" font-size="58" font-weight="700" fill="#0B1220">
    Ahmed<tspan fill="#0A66C2">Verse</tspan>
  </text>
  <text x="82" y="164" font-family="Helvetica, Arial, sans-serif" font-size="17" letter-spacing="2.5" fill="#3C4B63">
    FRONTEND DEVELOPER  ·  NEXT.JS  ·  PREMIUM UI / UX
  </text>

  <rect x="82" y="184" width="64" height="3" rx="1.5" fill="#0A66C2"/>
</svg>
